<svg xmlns="http://www.w3.org/2000/svg" xmlns:xlink="http://www.w3.org/1999/xlink" width="432" height="80" version="1.1" style=""><rect id="backgroundrect" width="100%" height="100%" x="0" y="0" fill="none" stroke="none"/>
    <!-- Generator: Sketch 61.1 (89650) - https://sketch.com -->
    <title>Group</title>
    <desc>Created with Sketch.</desc>
    
<g class="currentLayer" style=""><title>Layer 1</title><g id="Page-1" stroke="none" stroke-width="1" fill="#ffffff" fill-rule="evenodd" class="selected" fill-opacity="1">
        <g id="fastfeet" fill="#ffffff" fill-opacity="1">
            <g id="Group" fill="#ffffff" fill-opacity="1">
                <text id="FASTFEET" font-family="Roboto-BoldItalic, Roboto" font-size="60.952381" font-style="italic" font-weight="bold" letter-spacing="2.03174614" y="0" x="0" fill="#ffffff" fill-opacity="1">
                    <tspan x="137.688492" y="62.714285700000005" id="svg_1">FASTFEET</tspan>
                </text>
                <g id="noun_fast_29949" fill-rule="nonzero" fill="#ffffff" fill-opacity="1">
                    <path d="M115.363175,53.968254 C89.2577778,53.968254 63.1485714,53.968254 37.0431746,53.968254 C34.033650800000004,53.968254 34.033650800000004,58.62984130000001 37.0431746,58.62984130000001 C63.1485714,58.62984130000001 89.2577778,58.62984130000001 115.363175,58.62984130000001 C118.372698,58.6285714 118.372698,53.968254 115.363175,53.968254 L115.363175,53.968254 z" id="Path" fill="#ffffff" fill-opacity="1"/>
                    <path d="M121.271746,40.6907937 C97.1320635,40.6907937 72.9911111,40.6907937 48.85269840000001,40.6907937 C45.96253970000001,40.6907937 45.96253970000001,45.17460320000001 48.85269840000001,45.17460320000001 C72.9898413,45.17460320000001 97.1320635,45.17460320000001 121.271746,45.17460320000001 C124.159365,45.17460320000001 124.159365,40.6907937 121.271746,40.6907937 L121.271746,40.6907937 z" id="Path" fill="#ffffff" fill-opacity="1"/>
                    <path d="M106.972063,27.54920630000001 C80.8653968,27.54920630000001 54.7574603,27.54920630000001 28.65079370000001,27.54920630000001 C25.6425397,27.54920630000001 25.6425397,32.2095248 28.65079370000001,32.2095248 C54.7574603,32.2095248 80.8653968,32.2095248 106.972063,32.2095248 C109.979048,32.2120635 109.979048,27.54920630000001 106.972063,27.54920630000001 L106.972063,27.54920630000001 z" id="Path" fill="#ffffff" fill-opacity="1"/>
                    <path d="M34.2431746,79.607619 C22.932698399999992,79.607619 13.730158700000004,70.4050794 13.730158700000004,59.094603199999995 C13.730158700000004,58.44952380000001 13.796190499999994,57.87809519999999 13.879999999999995,57.3587302 C5.726349209999995,54.5511111 0.05396825399999727,46.7949206 0.05396825399999727,37.9619048 C0.05396825399999727,26.648888900000003 9.256507940000006,17.447619000000003 20.568253999999996,17.447619000000003 C21.2209524,17.447619000000003 21.873650800000007,17.476825399999996 22.522539699999996,17.539047600000004 C24.0273016,7.766349210000001 32.3231746,0.5092063489999958 42.63428569999999,0.5092063489999958 C52.3371429,0.5092063489999958 60.7904762,7.3993650799999955 62.7307937,16.891428599999998 C63.0203175,18.319999999999993 62.1009524,19.718095199999993 60.6711111,20.010158700000005 C59.2450794,20.2984127 57.8406349,19.380317500000004 57.5498413,17.947936499999997 C56.1111111,10.904127000000003 49.83682540000001,5.794285709999997 42.630476200000004,5.794285709999997 C34.1796825,5.794285709999997 27.560000000000002,12.363174600000008 27.560000000000002,20.749206299999997 C27.560000000000002,21.625396800000004 27.1269841,22.44698410000001 26.3980952,22.939682500000004 C25.673015899999996,23.429841299999993 24.7498413,23.5301587 23.935873,23.205079400000002 L23.415238099999996,22.996825400000006 C22.481904799999995,22.8203175 21.524444399999993,22.730158700000004 20.565714299999996,22.730158700000004 C12.168254000000005,22.730158700000004 5.337777779999996,29.560634899999997 5.337777779999996,37.9606349 C5.337777779999996,45.22158730000001 10.498412700000003,51.504761900000005 17.609523800000005,52.902857100000006 C18.393015899999995,53.0552381 19.063492100000005,53.5580952 19.436825400000004,54.2577778 C19.8088889,54.96507940000001 19.843174599999998,55.800634900000006 19.530793700000004,56.53460319999999 L19.306031700000005,57.0603175 C19.276825400000007,57.21777779999999 19.24507940000001,57.37269839999999 19.215873000000002,57.5263492 C19.101587300000006,58.1206349 19.010158700000005,58.5904762 19.010158700000005,59.0933333 C19.010158700000005,67.4907937 25.840634899999998,74.3212698 34.238095200000004,74.3212698 C40.44,74.3212698 45.971428599999996,70.6184127 48.332063500000004,64.8812698 C48.88444440000001,63.5314286 50.42984129999999,62.8863492 51.77968250000001,63.4412698 C53.1295238,63.9961905 53.7746032,65.5403175 53.2184127,66.8901587 C50.047619,74.6184127 42.597460299999995,79.607619 34.2431746,79.607619 z" id="Path" fill="#ffffff" fill-opacity="1"/>
                </g>
            </g>
        </g>
    </g></g></svg>